<?xml version="1.0" encoding="UTF-8"?>
<!DOCTYPE svg PUBLIC "-//W3C//DTD SVG 1.1//EN" "http://www.w3.org/Graphics/SVG/1.1/DTD/svg11.dtd">
<!-- Creator: CorelDRAW -->
<svg xmlns="http://www.w3.org/2000/svg" xml:space="preserve" width="9.21162in" height="2.65567in" version="1.1" style="shape-rendering:geometricPrecision; text-rendering:geometricPrecision; image-rendering:optimizeQuality; fill-rule:evenodd; clip-rule:evenodd"
viewBox="0 0 2326.51 670.72"
 xmlns:xlink="http://www.w3.org/1999/xlink"
 xmlns:xodm="http://www.corel.com/coreldraw/odm/2003">
 <defs>
  <style type="text/css">
   <![CDATA[
    .fil0 {fill:#FEFEFE;fill-rule:nonzero}
   ]]>
  </style>
 </defs>
 <g id="Calque_x0020_1">
  <metadata id="CorelCorpID_0Corel-Layer"/>
  <g id="_1987384051088">
   <g>
    <path class="fil0" d="M918.35 462.39c1.11,1.29 1.66,2.68 1.66,4.16 0,2.04 -0.79,3.79 -2.35,5.27 -1.57,1.48 -3.37,2.22 -5.4,2.22l-0.28 0c-2.96,0 -5.73,-1.67 -8.31,-4.99l-180.94 -215.28 -92 97.93 0 113.47c0,5.92 -2.4,8.88 -7.2,8.88l-0.28 0c-4.99,0 -7.48,-2.96 -7.48,-8.88l0 -377.85c0,-5.92 2.49,-8.88 7.48,-8.88l0.28 0c4.8,0 7.2,2.96 7.2,8.88l0 243.86 230.82 -247.74c3.33,-3.51 6.1,-5.27 8.31,-5.27l0.55 0c2.03,0 3.79,0.79 5.27,2.36 1.48,1.57 2.22,3.37 2.22,5.41 0,2.04 -0.65,3.7 -1.94,4.99l-142.7 151.47 185.1 220z"/>
    <path class="fil0" d="M999.53 78.15l257.14 0c5.91,0 8.86,2.5 8.86,7.49l0 0.28c0,2.59 -0.79,4.54 -2.35,5.83 -1.58,1.3 -3.74,1.94 -6.51,1.94l-249.66 0 0 167.56 204.49 0c2.77,0 5.04,0.6 6.79,1.8 1.75,1.2 2.64,3.1 2.64,5.69l0 0.28c0,2.59 -0.88,4.49 -2.64,5.69 -1.75,1.2 -4.02,1.8 -6.79,1.8l-204.49 0 0 181.99 255.2 0c5.91,0 8.86,2.5 8.86,7.49l0 0.28c0,2.59 -0.79,4.53 -2.35,5.82 -1.58,1.3 -3.74,1.94 -6.51,1.94l-262.69 0c-4.99,0 -7.48,-2.59 -7.48,-7.77l0 -380.63c0,-4.99 2.49,-7.49 7.48,-7.49z"/>
    <path class="fil0" d="M1311.81 78.15l283.74 0c4.8,0 7.2,2.5 7.2,7.49l0 0.28c0,5.18 -2.4,7.77 -7.2,7.77l-133.84 0 0 372.58c0,5.18 -2.4,7.77 -7.2,7.77l-0.28 0c-5.17,0 -7.76,-2.59 -7.76,-7.77l0 -372.58 -134.66 0c-5.17,0 -7.76,-2.59 -7.76,-7.77l0 -0.28c0,-4.99 2.59,-7.49 7.76,-7.49z"/>
    <path class="fil0" d="M1930.55 417.17c1.85,0 3.42,0.65 4.71,1.94l0.55 0.55c1.11,1.11 1.67,2.59 1.67,4.44 0,2.96 -1.2,5.37 -3.6,7.21 -17.55,14.98 -36.95,26.59 -58.19,34.82 -21.24,8.23 -43.69,12.34 -67.33,12.34 -36.95,0 -71.03,-9.01 -102.25,-27.05 -31.22,-18.03 -56.02,-42.53 -74.4,-73.52 -18.39,-30.98 -27.57,-64.87 -27.57,-101.68 0,-36.99 9.14,-70.92 27.43,-101.81 18.29,-30.89 43.09,-55.35 74.4,-73.38 31.31,-18.03 65.44,-27.05 102.39,-27.05 23.65,0 46.04,4.02 67.2,12.07 21.15,8.04 40.68,19.47 58.6,34.26 2.95,2.77 4.43,5.27 4.43,7.49 0,0.55 -0.14,1.11 -0.42,1.67 -0.28,0.55 -0.41,0.93 -0.41,1.11l-0.55 1.11 -0.28 0.28c-1.66,1.67 -3.7,2.5 -6.1,2.5 -2.03,0 -4.07,-0.74 -6.1,-2.22 -36.39,-28.11 -75.19,-42.17 -116.38,-42.17 -34.18,0 -65.72,8.23 -94.63,24.69 -28.91,16.47 -51.77,38.94 -68.58,67.41 -16.82,28.49 -25.22,59.84 -25.22,94.05 0,34.22 8.45,65.52 25.35,93.91 16.9,28.39 39.76,50.86 68.58,67.41 28.82,16.55 60.31,24.83 94.49,24.83 41.19,0 79.89,-14.24 116.1,-42.72 2.03,-1.67 4.06,-2.5 6.1,-2.5z"/>
    <path class="fil0" d="M2025.31 284.56l0 180.6c0,5.92 -2.4,8.88 -7.2,8.88l-0.28 0c-4.98,0 -7.48,-2.96 -7.48,-8.88l0 -378.13c0,-5.91 2.5,-8.87 7.48,-8.87l0.28 0c4.8,0 7.2,2.96 7.2,8.87l0 182.55 286.24 0 0 -182.55c0,-5.91 2.49,-8.87 7.48,-8.87l0.28 0c4.8,0 7.2,2.96 7.2,8.87l0 378.13c0,5.92 -2.4,8.88 -7.2,8.88l-0.28 0c-4.99,0 -7.48,-2.96 -7.48,-8.88l0 -180.6 -286.24 0z"/>
    <path class="fil0" d="M366.51 189.24c-2.24,0 -4.3,-0.56 -6.19,-1.68 -1.89,-1.12 -4.04,-2.62 -6.44,-4.52l-0.52 -0.26c-3.27,-3.27 -7.48,-6.88 -12.63,-10.84 -5.16,-3.96 -10.92,-7.65 -17.27,-11.1 -6.36,-3.44 -13.19,-6.36 -20.5,-8.77 -7.31,-2.41 -14.74,-3.62 -22.3,-3.62 -9.63,0 -18.13,1.08 -25.52,3.23 -7.39,2.15 -13.58,5.08 -18.56,8.78 -4.99,3.7 -8.77,8.05 -11.34,13.03 -2.58,5 -3.87,10.33 -3.87,16.01 0,6.19 1.93,11.61 5.8,16.26 3.87,4.64 9.11,8.78 15.73,12.39 6.61,3.61 14.22,6.93 22.81,9.94 8.59,3.01 17.62,5.98 27.07,8.9 10.83,3.27 21.57,6.8 32.23,10.58 10.65,3.79 20.84,8.04 30.55,12.78 9.71,4.74 18.78,9.98 27.2,15.75 8.42,5.77 15.68,12.39 21.78,19.87 6.1,7.48 10.91,15.83 14.43,25.04 3.52,9.2 5.29,19.57 5.29,31.1 0,18.76 -3.78,35.71 -11.34,50.85 -7.57,15.14 -18.01,28.09 -31.32,38.84 -13.32,10.75 -28.96,19.02 -46.92,24.78 -17.96,5.76 -37.25,8.65 -57.88,8.65 -13.24,0 -26.39,-1.55 -39.44,-4.64 -13.06,-3.1 -25.61,-7.49 -37.64,-13.17 -12.03,-5.68 -23.42,-12.52 -34.16,-20.52 -10.74,-8 -20.32,-16.99 -28.74,-26.97l0 0.26 -0.52 -1.03c-3.79,-4.3 -5.67,-8.26 -5.67,-11.87 0,-1.89 0.52,-3.7 1.55,-5.42 1.03,-1.72 2.57,-3.61 4.64,-5.68l8.51 -8.51c2.57,-2.24 5.32,-4.73 8.25,-7.49 2.92,-2.75 5.84,-5.25 8.77,-7.49 2.92,-2.23 5.63,-4.13 8.12,-5.68 2.49,-1.55 4.51,-2.32 6.06,-2.32 2.41,0 4.64,0.78 6.7,2.32 2.06,1.55 3.78,3.01 5.16,4.39l1.03 1.03 -0.26 0c6.02,5.68 12.76,11.1 20.24,16.26 7.48,5.16 15.16,9.77 23.07,13.81 7.9,4.04 15.76,7.23 23.59,9.55 7.82,2.32 15.16,3.48 22.04,3.48 9.45,0 18.3,-1.2 26.55,-3.61 8.25,-2.41 15.38,-5.8 21.39,-10.19 6.02,-4.39 10.74,-9.68 14.18,-15.88 3.43,-6.19 5.15,-13.07 5.15,-20.65 0,-7.57 -2.23,-14.07 -6.7,-19.49 -4.47,-5.42 -10.31,-10.15 -17.53,-14.2 -7.22,-4.04 -15.34,-7.52 -24.36,-10.45 -9.02,-2.93 -18.09,-5.68 -27.2,-8.26 -20.97,-6.36 -39.32,-13.25 -55.04,-20.65 -15.73,-7.4 -28.83,-15.7 -39.31,-24.91 -10.48,-9.2 -18.35,-19.53 -23.59,-30.97 -5.24,-11.44 -7.86,-24.3 -7.86,-38.59 0,-16 3.22,-30.58 9.67,-43.75 6.44,-13.17 15.6,-24.43 27.45,-33.82 11.86,-9.37 26.12,-16.69 42.8,-21.94 16.67,-5.25 35.32,-7.87 55.94,-7.87 15.64,0 31.54,2.45 47.69,7.36 16.15,4.9 31.1,11.66 44.85,20.26 4.13,2.58 8.34,5.51 12.64,8.78 4.29,3.27 8.25,6.58 11.86,9.93 3.61,3.36 6.57,6.63 8.9,9.81 2.32,3.18 3.48,5.9 3.48,8.13 0,2.07 -0.52,4.17 -1.55,6.32 -1.03,2.15 -2.32,4.09 -3.87,5.81l-7.73 8.26 0 -0.26c-2.58,2.75 -5.24,5.59 -7.99,8.52 -2.75,2.93 -5.5,5.55 -8.25,7.87 -2.75,2.33 -5.24,4.26 -7.48,5.81 -2.23,1.55 -4.12,2.32 -5.67,2.32z"/>
    <path class="fil0" d="M277.44 46.28c-127.49,0 -231.22,103.85 -231.22,231.49 0,127.65 103.73,231.5 231.22,231.5 127.5,0 231.22,-103.85 231.22,-231.5 0,-127.65 -103.72,-231.49 -231.22,-231.49zm0 509.26c-152.98,0 -277.44,-124.6 -277.44,-277.77 0,-153.16 124.46,-277.77 277.44,-277.77 152.98,0 277.44,124.61 277.44,277.77 0,153.17 -124.46,277.77 -277.44,277.77z"/>
   </g>
   <path class="fil0" d="M1120.14 564.26c6.66,-4.58 15.25,-6.87 25.76,-6.87 5.62,0 11.4,0.57 17.33,1.72 5.93,1.15 10.98,2.71 15.14,4.68 1.04,0.42 1.74,1.12 2.11,2.11 0.36,0.99 0.34,2 -0.08,3.04 -0.52,0.94 -1.28,1.61 -2.26,2.03 -0.99,0.41 -1.95,0.36 -2.89,-0.16 -3.75,-1.66 -8.3,-3.02 -13.66,-4.06 -5.36,-1.04 -10.59,-1.56 -15.69,-1.56 -4.37,0 -8.38,0.47 -12.02,1.41 -3.64,0.94 -6.77,2.29 -9.37,4.06 -5.41,3.75 -8.12,8.85 -8.12,15.3 0,5.72 2.71,10.3 8.12,13.74 4.99,3.23 12.33,5.57 22.01,7.03 13.53,1.98 23.86,5.7 30.99,11.16 7.13,5.46 10.69,12.41 10.69,20.84 0,10.2 -4.32,18.27 -12.95,24.2 -7.6,5.2 -17.38,7.8 -29.35,7.8 -15.4,0 -28.26,-4.06 -38.56,-12.18 -0.83,-0.62 -1.33,-1.48 -1.48,-2.57 -0.16,-1.09 0.08,-2.06 0.7,-2.89 0.73,-0.83 1.61,-1.33 2.65,-1.48 1.04,-0.16 1.98,0.13 2.81,0.86 9.16,6.97 20.45,10.46 33.88,10.46 5,0 9.63,-0.55 13.89,-1.64 4.27,-1.09 7.96,-2.68 11.09,-4.76 6.35,-4.48 9.52,-10.41 9.52,-17.8 0,-6.24 -3.12,-11.5 -9.37,-15.77 -3.02,-2.08 -6.68,-3.8 -11.01,-5.15 -4.32,-1.35 -9.18,-2.45 -14.6,-3.28 -10.61,-1.56 -18.99,-4.27 -25.13,-8.12 -3.64,-2.39 -6.51,-5.2 -8.59,-8.43 -2.08,-3.64 -3.12,-7.65 -3.12,-12.02 0,-9.26 3.85,-16.5 11.55,-21.7zm170.16 -4.84c1.15,0 2.08,0.39 2.81,1.17 0.73,0.78 1.09,1.69 1.09,2.73 0,1.15 -0.36,2.08 -1.09,2.81 -0.73,0.73 -1.66,1.09 -2.81,1.09l-37.31 0 0 97.57c0,1.14 -0.36,2.08 -1.09,2.81 -0.73,0.73 -1.66,1.09 -2.81,1.09 -1.14,0 -2.08,-0.36 -2.81,-1.09 -0.73,-0.73 -1.09,-1.67 -1.09,-2.81l0 -97.57 -37.47 0c-1.04,0 -1.95,-0.36 -2.73,-1.09 -0.78,-0.73 -1.17,-1.66 -1.17,-2.81 0,-1.04 0.39,-1.95 1.17,-2.73 0.78,-0.78 1.69,-1.17 2.73,-1.17l82.58 0zm24.67 14.52c5.41,-5.31 11.55,-9.39 18.42,-12.25 6.87,-2.86 14.1,-4.29 21.7,-4.29 7.6,0 14.83,1.43 21.7,4.29 6.87,2.86 13.01,6.95 18.42,12.25 5.31,5.41 9.39,11.55 12.25,18.42 2.86,6.87 4.29,14.1 4.29,21.7 0,7.6 -1.43,14.83 -4.29,21.7 -2.86,6.87 -6.95,13.01 -12.25,18.42 -5.41,5.41 -11.55,9.52 -18.42,12.33 -6.87,2.81 -14.1,4.22 -21.7,4.22 -7.6,0 -14.83,-1.41 -21.7,-4.22 -6.87,-2.81 -13.01,-6.92 -18.42,-12.33 -5.41,-5.41 -9.52,-11.55 -12.33,-18.42 -2.81,-6.87 -4.22,-14.1 -4.22,-21.7 0,-7.6 1.41,-14.83 4.22,-21.7 2.81,-6.87 6.92,-13.01 12.33,-18.42zm5.46 74.78c4.68,4.68 9.99,8.22 15.92,10.62 5.93,2.39 12.18,3.59 18.73,3.59 6.56,0 12.77,-1.2 18.66,-3.59 5.88,-2.39 11.16,-5.93 15.85,-10.62 4.68,-4.68 8.25,-9.99 10.69,-15.92 2.45,-5.93 3.67,-12.18 3.67,-18.73 0,-6.56 -1.22,-12.78 -3.67,-18.65 -2.45,-5.88 -6.01,-11.16 -10.69,-15.85 -4.68,-4.68 -9.96,-8.25 -15.85,-10.69 -5.88,-2.45 -12.1,-3.67 -18.66,-3.67 -6.56,0 -12.8,1.22 -18.73,3.67 -5.93,2.45 -11.24,6.01 -15.92,10.69 -4.68,4.68 -8.22,9.96 -10.61,15.85 -2.39,5.88 -3.59,12.1 -3.59,18.65 0,6.56 1.2,12.8 3.59,18.73 2.39,5.93 5.93,11.24 10.61,15.92zm129.73 -74.78c5.41,-5.31 11.55,-9.39 18.42,-12.25 6.87,-2.86 14.1,-4.29 21.7,-4.29 7.6,0 14.86,1.43 21.78,4.29 6.92,2.86 13.03,6.95 18.34,12.25 0.83,0.83 1.25,1.77 1.25,2.81 0,1.04 -0.41,1.98 -1.25,2.81 -0.83,0.83 -1.74,1.25 -2.73,1.25 -0.99,0 -1.9,-0.42 -2.73,-1.25 -4.68,-4.68 -9.99,-8.25 -15.92,-10.69 -5.93,-2.45 -12.18,-3.67 -18.73,-3.67 -6.56,0 -12.77,1.22 -18.66,3.67 -5.88,2.45 -11.16,6.01 -15.84,10.69 -4.68,4.68 -8.25,9.96 -10.69,15.85 -2.45,5.88 -3.67,12.1 -3.67,18.65 0,6.56 1.23,12.8 3.67,18.73 2.44,5.93 6.01,11.24 10.69,15.92 4.68,4.68 9.96,8.22 15.84,10.62 5.88,2.39 12.1,3.59 18.66,3.59 6.56,0 12.8,-1.2 18.73,-3.59 5.93,-2.39 11.24,-5.93 15.92,-10.62 0.83,-0.83 1.74,-1.25 2.73,-1.25 0.99,0 1.9,0.42 2.73,1.25 0.83,0.83 1.25,1.74 1.25,2.73 0,0.99 -0.41,1.9 -1.25,2.73 -5.31,5.41 -11.42,9.52 -18.34,12.33 -6.92,2.81 -14.18,4.22 -21.78,4.22 -7.6,0 -14.83,-1.41 -21.7,-4.22 -6.87,-2.81 -13.01,-6.92 -18.42,-12.33 -5.31,-5.41 -9.39,-11.55 -12.26,-18.42 -2.86,-6.87 -4.29,-14.1 -4.29,-21.7 0,-7.6 1.43,-14.83 4.29,-21.7 2.87,-6.87 6.95,-13.01 12.26,-18.42zm194.2 87.89c0.94,0.83 1.41,1.82 1.41,2.97 0,0.94 -0.31,1.77 -0.94,2.5 -0.73,0.83 -1.61,1.3 -2.65,1.41 -1.04,0.1 -1.98,-0.21 -2.81,-0.94l-61.04 -49.8 -10.77 0 0 46.83c0,1.14 -0.36,2.08 -1.09,2.81 -0.73,0.73 -1.67,1.09 -2.81,1.09 -1.14,0 -2.08,-0.36 -2.81,-1.09 -0.73,-0.73 -1.09,-1.67 -1.09,-2.81l0 -101.48c0,-1.04 0.36,-1.95 1.09,-2.73 0.73,-0.78 1.67,-1.17 2.81,-1.17 1.14,0 2.08,0.39 2.81,1.17 0.73,0.78 1.09,1.69 1.09,2.73l0 46.83 10.93 0 60.88 -49.8c0.83,-0.73 1.77,-1.01 2.81,-0.86 1.04,0.15 1.93,0.65 2.65,1.48 0.62,0.63 0.94,1.41 0.94,2.34 0,1.35 -0.47,2.39 -1.41,3.12 -9.78,8.01 -18.68,15.3 -26.7,21.86 -3.43,2.81 -6.87,5.62 -10.3,8.43 -3.43,2.81 -6.58,5.39 -9.44,7.73 -2.86,2.34 -5.36,4.37 -7.49,6.09 -2.13,1.72 -3.57,2.89 -4.29,3.51 0.73,0.63 2.16,1.82 4.29,3.59 2.14,1.77 4.63,3.82 7.49,6.17 2.86,2.34 6.01,4.92 9.44,7.73 3.44,2.81 6.87,5.62 10.3,8.43 8.01,6.56 16.91,13.84 26.7,21.85zm156.27 -102.41c1.15,0 2.08,0.39 2.81,1.17 0.73,0.78 1.1,1.69 1.1,2.73 0,1.15 -0.36,2.08 -1.1,2.81 -0.73,0.73 -1.66,1.09 -2.81,1.09l-69 0 0 42.93 60.26 0c1.04,0 1.95,0.36 2.73,1.09 0.78,0.73 1.17,1.67 1.17,2.81 0,1.15 -0.39,2.08 -1.17,2.81 -0.78,0.73 -1.69,1.09 -2.73,1.09l-60.26 0 0 46.83c0,1.14 -0.36,2.08 -1.09,2.81 -0.73,0.73 -1.67,1.09 -2.81,1.09 -1.14,0 -2.08,-0.36 -2.81,-1.09 -0.73,-0.73 -1.09,-1.67 -1.09,-2.81l0 -101.48c0,-1.04 0.36,-1.95 1.09,-2.73 0.73,-0.78 1.67,-1.17 2.81,-1.17l72.9 0zm25.76 3.9c0,-1.04 0.36,-1.95 1.09,-2.73 0.73,-0.78 1.67,-1.17 2.81,-1.17 1.14,0 2.08,0.39 2.81,1.17 0.73,0.78 1.09,1.69 1.09,2.73l0 101.48c0,1.14 -0.36,2.08 -1.09,2.81 -0.73,0.73 -1.67,1.09 -2.81,1.09 -1.14,0 -2.08,-0.36 -2.81,-1.09 -0.73,-0.73 -1.09,-1.67 -1.09,-2.81l0 -101.48zm44.65 -3.59c1.77,-0.73 3.18,-0.36 4.22,1.09 12.7,15.09 24.46,28.99 35.28,41.68 4.58,5.41 9.16,10.85 13.74,16.31 4.58,5.46 8.87,10.54 12.88,15.22 4.01,4.68 7.52,8.82 10.54,12.41 3.02,3.59 5.26,6.22 6.71,7.88l0 -90.85c0,-1.04 0.36,-1.95 1.09,-2.73 0.73,-0.78 1.67,-1.17 2.81,-1.17 1.15,0 2.08,0.39 2.81,1.17 0.73,0.78 1.09,1.69 1.09,2.73l0 101.32c0,1.66 -0.83,2.81 -2.5,3.43 -1.77,0.73 -3.23,0.42 -4.37,-0.94 -12.7,-15.09 -24.41,-28.99 -35.13,-41.68 -4.58,-5.41 -9.16,-10.82 -13.74,-16.24 -4.58,-5.41 -8.87,-10.46 -12.88,-15.14 -4.01,-4.68 -7.52,-8.82 -10.54,-12.41 -3.02,-3.59 -5.26,-6.22 -6.72,-7.88l0 90.86c0,1.14 -0.39,2.08 -1.17,2.81 -0.78,0.73 -1.69,1.09 -2.73,1.09 -1.14,0 -2.08,-0.36 -2.81,-1.09 -0.73,-0.73 -1.09,-1.67 -1.09,-2.81l0 -101.48c0,-1.77 0.83,-2.97 2.5,-3.59zm174.85 -0.31c7.39,0 14.36,1.38 20.92,4.14 6.56,2.76 12.49,6.74 17.8,11.94 5.21,5.2 9.16,11.11 11.87,17.72 2.71,6.61 4.06,13.56 4.06,20.84 0,7.39 -1.35,14.39 -4.06,21 -2.71,6.61 -6.66,12.52 -11.87,17.72 -5.31,5.2 -11.24,9.16 -17.8,11.86 -6.56,2.71 -13.53,4.06 -20.92,4.06l-45.43 0c-1.14,0 -2.08,-0.36 -2.81,-1.09 -0.73,-0.73 -1.09,-1.67 -1.09,-2.81l0 -101.48c0,-1.04 0.36,-1.95 1.09,-2.73 0.73,-0.78 1.67,-1.17 2.81,-1.17l45.43 0zm-41.53 7.81l0 93.67 41.53 0c6.24,0 12.23,-1.17 17.95,-3.51 5.72,-2.34 10.77,-5.75 15.14,-10.23 4.48,-4.37 7.88,-9.42 10.23,-15.14 2.34,-5.72 3.51,-11.71 3.51,-17.95 0,-6.24 -1.17,-12.2 -3.51,-17.88 -2.34,-5.67 -5.75,-10.75 -10.23,-15.22 -4.37,-4.37 -9.42,-7.75 -15.14,-10.15 -5.72,-2.39 -11.71,-3.59 -17.95,-3.59l-41.53 0zm201.07 93.67c1.15,0 2.08,0.36 2.81,1.09 0.73,0.73 1.09,1.66 1.09,2.81 0,1.14 -0.36,2.08 -1.09,2.81 -0.73,0.73 -1.66,1.09 -2.81,1.09l-72.9 0c-1.14,0 -2.08,-0.36 -2.81,-1.09 -0.73,-0.73 -1.09,-1.67 -1.09,-2.81l0 -101.48c0,-1.04 0.36,-1.95 1.09,-2.73 0.73,-0.78 1.67,-1.17 2.81,-1.17l72.9 0c1.15,0 2.08,0.39 2.81,1.17 0.73,0.78 1.09,1.69 1.09,2.73 0,1.15 -0.36,2.08 -1.09,2.81 -0.73,0.73 -1.66,1.09 -2.81,1.09l-69 0 0 42.93 60.26 0c1.04,0 1.95,0.36 2.73,1.09 0.78,0.73 1.17,1.67 1.17,2.81 0,1.15 -0.39,2.08 -1.17,2.81 -0.78,0.73 -1.69,1.09 -2.73,1.09l-60.26 0 0 42.93 69 0zm119.9 1.87c0.83,0.83 1.23,1.77 1.17,2.81 -0.06,1.04 -0.49,1.98 -1.33,2.81 -0.83,0.73 -1.77,1.07 -2.81,1.01 -1.04,-0.05 -1.98,-0.49 -2.81,-1.32l-34.81 -37.78 -39.5 0 0 34.5c0,1.14 -0.36,2.08 -1.09,2.81 -0.73,0.73 -1.67,1.09 -2.81,1.09 -1.14,0 -2.08,-0.36 -2.81,-1.09 -0.73,-0.73 -1.09,-1.67 -1.09,-2.81l0 -101.48c0,-1.04 0.36,-1.95 1.09,-2.73 0.73,-0.78 1.67,-1.17 2.81,-1.17l47.62 0c4.89,0 9.5,0.94 13.81,2.81 4.32,1.87 8.07,4.4 11.24,7.57 3.18,3.17 5.7,6.92 7.57,11.24 1.87,4.32 2.81,8.92 2.81,13.81 0,4.37 -0.75,8.51 -2.26,12.41 -1.51,3.9 -3.59,7.39 -6.24,10.46 -2.65,3.07 -5.78,5.65 -9.37,7.73 -3.59,2.08 -7.47,3.49 -11.63,4.22l30.44 33.09zm-80.09 -40.28l43.71 0c3.85,0 7.44,-0.73 10.77,-2.18 3.33,-1.46 6.25,-3.44 8.74,-5.93 2.5,-2.5 4.48,-5.44 5.93,-8.82 1.46,-3.38 2.18,-6.95 2.18,-10.69 0,-3.75 -0.73,-7.31 -2.18,-10.69 -1.46,-3.38 -3.44,-6.32 -5.93,-8.82 -2.5,-2.5 -5.41,-4.48 -8.74,-5.93 -3.33,-1.46 -6.92,-2.18 -10.77,-2.18l-43.71 0 0 55.26z"/>
  </g>
 </g>
</svg>
