<?xml version="1.0" encoding="UTF-8"?>
<!DOCTYPE svg PUBLIC "-//W3C//DTD SVG 1.1//EN" "http://www.w3.org/Graphics/SVG/1.1/DTD/svg11.dtd">
<!-- Creator: CorelDRAW -->
<svg xmlns="http://www.w3.org/2000/svg" xml:space="preserve" width="233.975mm" height="68.3921mm" version="1.1" style="shape-rendering:geometricPrecision; text-rendering:geometricPrecision; image-rendering:optimizeQuality; fill-rule:evenodd; clip-rule:evenodd"
viewBox="0 0 29176.25 8528.36"
 xmlns:xlink="http://www.w3.org/1999/xlink"
 xmlns:xodm="http://www.corel.com/coreldraw/odm/2003">
 <defs>
  <style type="text/css">
   <![CDATA[
    .fil1 {fill:white;fill-rule:nonzero}
    .fil0 {fill:#FEFEFE;fill-rule:nonzero}
   ]]>
  </style>
 </defs>
 <g id="Calque_x0020_1">
  <metadata id="CorelCorpID_0Corel-Layer"/>
  <g id="_105553194310560">
   <g>
    <path class="fil0" d="M11516.83 5798.73c13.92,16.17 20.81,33.61 20.81,52.17 0,25.59 -9.9,47.53 -29.47,66.09 -19.69,18.56 -42.26,27.85 -67.72,27.85l-3.52 0c-37.12,0 -71.86,-20.95 -104.21,-62.57l-2269.13 -2699.78 -1153.76 1228.11 0 1423c0,74.25 -30.1,111.37 -90.29,111.37l-3.52 0c-62.57,0 -93.81,-37.12 -93.81,-111.37l0 -4738.54c0,-74.25 31.22,-111.37 93.81,-111.37l3.52 0c60.19,0 90.29,37.12 90.29,111.37l0 3058.19 2894.67 -3106.85c41.76,-44.02 76.5,-66.09 104.21,-66.09l6.9 0c25.46,0 47.53,9.9 66.09,29.59 18.56,19.69 27.85,42.26 27.85,67.85 0,25.59 -8.16,46.4 -24.33,62.57l-1789.57 1899.55 2321.3 2758.97 -0.12 -0.12z"/>
    <path class="fil0" d="M12534.89 980.06l3224.74 0c74.12,0 111.11,31.35 111.11,93.94l0 3.52c0,32.48 -9.9,56.94 -29.47,73.11 -19.81,16.3 -46.9,24.33 -81.64,24.33l-3130.93 0 0 2101.34 2564.47 0c34.74,0 63.21,7.52 85.16,22.57 21.95,15.05 33.11,38.88 33.11,71.35l0 3.52c0,32.48 -11.04,56.31 -33.11,71.35 -21.95,15.05 -50.42,22.57 -85.16,22.57l-2564.47 0 0 2282.3 3200.4 0c74.12,0 111.11,31.35 111.11,93.94l0 3.52c0,32.48 -9.9,56.81 -29.47,72.99 -19.81,16.3 -46.9,24.33 -81.64,24.33l-3294.34 0c-62.57,0 -93.81,-32.48 -93.81,-97.44l0 -4773.39c0,-62.57 31.22,-93.94 93.81,-93.94l0.12 0.11z"/>
    <path class="fil0" d="M16451.13 980.06l3558.32 0c60.19,0 90.29,31.35 90.29,93.94l0 3.52c0,64.96 -30.1,97.44 -90.29,97.44l-1678.46 0 0 4672.45c0,64.96 -30.1,97.44 -90.29,97.44l-3.52 0c-64.83,0 -97.31,-32.48 -97.31,-97.44l0 -4672.45 -1688.74 0c-64.83,0 -97.31,-32.48 -97.31,-97.44l0 -3.52c0,-62.57 32.48,-93.94 97.31,-93.94z"/>
    <path class="fil0" d="M24210.6 5231.64c23.21,0 42.88,8.16 59.07,24.33l6.9 6.9c13.92,13.92 20.95,32.48 20.95,55.68 0,37.12 -15.05,67.35 -45.14,90.42 -220.09,187.86 -463.38,333.46 -729.75,436.67 -266.37,103.21 -547.91,154.75 -844.37,154.75 -463.38,0 -890.77,-112.99 -1282.3,-339.23 -391.53,-226.11 -702.54,-533.36 -933.03,-921.99 -230.63,-388.51 -345.75,-813.52 -345.75,-1275.15 0,-463.89 114.62,-889.4 343.99,-1276.77 229.37,-387.39 540.38,-694.13 933.03,-920.25 392.65,-226.11 820.66,-339.23 1284.05,-339.23 296.59,0 577.38,50.42 842.73,151.37 265.23,100.83 510.16,244.17 734.9,429.65 37,34.74 55.55,66.09 55.55,93.94 0,6.9 -1.76,13.92 -5.26,20.95 -3.52,6.9 -5.14,11.66 -5.14,13.92l-6.9 13.92 -3.52 3.52c-20.81,20.95 -46.4,31.35 -76.5,31.35 -25.46,0 -51.04,-9.28 -76.5,-27.85 -456.36,-352.52 -942.94,-528.84 -1459.49,-528.84 -428.65,0 -824.18,103.21 -1186.74,309.64 -362.56,206.55 -649.24,488.34 -860.04,845.38 -210.94,357.28 -316.28,750.45 -316.28,1179.46 0,429.15 105.97,821.67 317.91,1177.7 211.94,356.04 498.62,637.82 860.04,845.38 361.42,207.55 756.33,311.38 1184.98,311.38 516.55,0 1001.89,-178.58 1455.99,-535.74 25.46,-20.95 50.91,-31.35 76.5,-31.35l0.11 0.12z"/>
    <path class="fil0" d="M25398.96 3568.61l0 2264.87c0,74.25 -30.1,111.37 -90.29,111.37l-3.52 0c-62.45,0 -93.81,-37.12 -93.81,-111.37l0 -4742.04c0,-74.12 31.35,-111.23 93.81,-111.23l3.52 0c60.19,0 90.29,37.12 90.29,111.23l0 2289.32 3589.67 0 0 -2289.32c0,-74.12 31.22,-111.23 93.81,-111.23l3.52 0c60.19,0 90.29,37.12 90.29,111.23l0 4742.04c0,74.25 -30.1,111.37 -90.29,111.37l-3.52 0c-62.57,0 -93.81,-37.12 -93.81,-111.37l0 -2264.87 -3589.67 0z"/>
    <path class="fil0" d="M4596.32 2373.22c-28.09,0 -53.92,-7.02 -77.62,-21.07 -23.71,-14.04 -50.66,-32.86 -80.77,-56.69l-6.52 -3.25c-41.01,-41.01 -93.81,-86.28 -158.39,-135.95 -64.71,-49.67 -136.94,-95.94 -216.58,-139.2 -79.76,-43.15 -165.41,-79.76 -257.09,-109.98 -91.68,-30.23 -184.85,-45.4 -279.66,-45.4 -120.77,0 -227.36,13.54 -320.04,40.5 -92.68,26.96 -170.3,63.71 -232.76,110.11 -62.57,46.4 -109.98,100.96 -142.22,163.4 -32.36,62.7 -48.53,129.55 -48.53,200.78 0,77.62 24.2,145.6 72.74,203.92 48.53,58.18 114.25,110.11 197.27,155.39 82.9,45.28 178.33,86.9 286.06,124.66 107.73,37.75 220.96,74.99 339.48,111.62 135.82,41.01 270.51,85.28 404.18,132.68 133.56,47.53 261.35,100.83 383.12,160.27 121.77,59.44 235.52,125.16 341.11,197.52 105.59,72.36 196.64,155.39 273.14,249.18 76.5,93.81 136.82,198.52 180.96,314.03 44.14,115.37 66.34,245.42 66.34,390.02 0,235.27 -47.41,447.83 -142.22,637.69 -94.93,189.87 -225.87,352.27 -392.77,487.08 -167.05,134.81 -363.18,238.52 -588.41,310.76 -225.23,72.24 -467.14,108.47 -725.85,108.47 -166.04,0 -330.95,-19.44 -494.6,-58.18 -163.78,-38.88 -321.17,-93.94 -472.03,-165.16 -150.86,-71.23 -293.7,-157.01 -428.39,-257.34 -134.69,-100.33 -254.83,-213.07 -360.43,-338.23l0 3.25 -6.52 -12.92c-47.53,-53.92 -71.1,-103.59 -71.1,-148.86 0,-23.71 6.52,-46.4 19.44,-67.97 12.92,-21.57 32.23,-45.28 58.18,-71.23l106.72 -106.72c32.23,-28.09 66.71,-59.32 103.46,-93.94 36.62,-34.49 73.24,-65.84 109.98,-93.94 36.62,-27.97 70.6,-51.8 101.83,-71.23 31.22,-19.44 56.56,-29.09 75.99,-29.09 30.23,0 58.18,9.78 84.02,29.09 25.84,19.44 47.41,37.75 64.71,55.05l12.92 12.92 -3.25 0c75.49,71.23 160.03,139.2 253.82,203.92 93.81,64.71 190.11,122.53 289.31,173.19 99.07,50.66 197.65,90.67 295.83,119.76 98.08,29.09 190.11,43.64 276.39,43.64 118.51,0 229.49,-15.05 332.96,-45.28 103.46,-30.23 192.88,-72.74 268.25,-127.79 75.49,-55.05 134.69,-121.39 177.83,-199.14 43.02,-77.62 64.58,-163.9 64.58,-258.97 0,-94.93 -27.97,-176.45 -84.02,-244.42 -56.05,-67.97 -129.3,-127.29 -219.84,-178.08 -90.54,-50.66 -192.37,-94.31 -305.5,-131.05 -113.11,-36.75 -226.86,-71.23 -341.11,-103.59 -262.98,-79.76 -493.11,-166.16 -690.24,-258.97 -197.27,-92.8 -361.55,-196.89 -492.98,-312.39 -131.43,-115.37 -230.12,-244.92 -295.83,-388.38 -65.72,-143.47 -98.57,-304.74 -98.57,-483.95 0,-200.65 40.38,-383.5 121.27,-548.66 80.77,-165.16 195.64,-306.37 344.24,-424.12 148.74,-117.5 327.57,-209.31 536.75,-275.15 209.06,-65.84 442.94,-98.7 701.53,-98.7 196.14,0 395.54,30.73 598.06,92.3 202.53,61.45 390.02,146.22 562.45,254.07 51.8,32.36 104.58,69.1 158.52,110.11 53.79,41.01 103.46,82.51 148.74,124.54 45.28,42.14 82.39,83.15 111.62,123.03 29.09,39.88 43.64,74 43.64,101.95 0,25.96 -6.52,52.3 -19.44,79.26 -12.92,26.96 -29.09,51.29 -48.53,72.86l-96.94 103.59 0 -3.25c-32.36,34.49 -65.72,70.11 -100.19,106.84 -34.49,36.75 -68.97,69.61 -103.46,98.7 -34.49,29.22 -65.72,53.42 -93.81,72.86 -27.97,19.44 -51.66,29.09 -71.1,29.09l-0.1 0.14z"/>
    <path class="fil0" d="M3479.31 580.39c-1598.83,0 -2899.68,1302.36 -2899.68,2903.07 0,1600.84 1300.85,2903.2 2899.68,2903.2 1598.95,0 2899.68,-1302.36 2899.68,-2903.2 0,-1600.84 -1300.73,-2903.07 -2899.68,-2903.07zm0 6386.51c-1918.49,0 -3479.31,-1562.58 -3479.31,-3483.45 0,-1920.75 1560.82,-3483.45 3479.31,-3483.45 1918.49,0 3479.31,1562.7 3479.31,3483.45 0,1920.87 -1560.82,3483.45 -3479.31,3483.45z"/>
   </g>
   <path class="fil1" d="M17041.49 7415.76c-20.74,-96.17 -39.6,-143.3 -82.97,-199.87 -84.86,-113.15 -230.07,-173.5 -416.75,-173.5 -292.29,0 -482.74,152.74 -482.74,390.34 0,132.02 58.45,231.98 175.38,297.97 64.11,35.84 137.64,62.22 256.45,86.75 228.17,50.91 248.91,56.58 311.15,92.39 71.66,39.59 109.37,109.37 109.37,201.79 0,175.38 -135.77,280.97 -360.17,280.97 -139.56,0 -252.7,-47.16 -314.94,-130.12 -39.59,-50.91 -52.78,-96.17 -58.43,-186.69l-164.07 20.74c18.84,124.46 39.6,182.92 88.62,248.91 86.75,116.94 243.26,179.17 454.47,179.17 324.35,0 507.25,-150.87 507.25,-416.77 0,-218.73 -120.67,-333.78 -422.39,-397.87 -216.87,-47.15 -218.77,-47.15 -269.68,-67.89 -111.24,-45.25 -164.05,-115.03 -164.05,-213.11 0,-152.74 135.77,-256.47 330.01,-256.47 122.57,0 218.73,37.73 279.1,109.39 35.83,43.37 50.91,81.09 65.99,156.51l158.4 -22.63zm814.64 -216.84l292.3 0c105.59,0 160.26,3.77 222.5,13.18l0 -158.4c-62.24,9.45 -113.15,13.21 -222.5,13.21l-735.47 0c-99.93,0 -148.95,-3.75 -214.97,-13.21l0 158.4c62.22,-9.41 120.7,-13.18 216.86,-13.18l294.18 0 0 1088.08c0,88.62 -3.77,154.61 -15.08,213.07l177.25 0c-11.32,-67.89 -15.08,-120.68 -15.08,-213.07l0 -1088.08zm1289.84 -160.3c-396,0 -652.45,292.28 -652.45,744.88 0,454.45 252.68,744.86 650.57,744.86 397.9,0 652.47,-290.41 652.47,-744.86 0,-454.47 -252.7,-744.88 -650.6,-744.88zm1.9 1355.87c-301.73,0 -501.6,-243.26 -501.6,-612.88 0,-369.62 198,-610.98 499.7,-610.98 130.12,0 243.29,45.27 330.01,130.12 109.39,109.36 165.95,275.31 165.95,482.76 0,201.76 -60.33,377.14 -167.82,482.73 -84.86,84.86 -196.14,128.25 -326.25,128.25zm2061.12 -963.63c-45.27,-116.93 -81.1,-173.5 -147.09,-237.6 -101.83,-101.83 -245.16,-152.74 -422.41,-152.74 -179.14,0 -322.47,54.68 -431.82,160.27 -139.56,137.67 -214.98,343.22 -214.98,586.48 0,235.7 71.65,441.26 203.66,573.26 107.49,109.36 260.23,165.94 441.27,165.94 211.2,0 382.8,-77.31 488.4,-218.73 45.27,-60.34 69.77,-113.15 101.84,-224.41l-156.53 -37.72c-16.97,86.75 -35.81,133.9 -75.42,188.58 -77.33,101.83 -203.68,158.4 -352.65,158.4 -303.61,0 -497.83,-237.61 -497.83,-610.98 0,-375.27 192.35,-609.11 497.83,-609.11 137.65,0 250.82,47.16 326.24,135.77 39.59,45.27 60.35,84.87 88.64,165.96l150.86 -43.37zm741.09 235.72l407.31 -405.43c5.66,-5.66 28.29,-28.28 62.24,-64.12 24.52,-26.4 52.81,-52.81 82.96,-82.96 15.1,-15.1 15.1,-15.1 49.04,-47.16l-222.52 0c-26.4,47.16 -58.47,84.86 -130.12,156.51l-573.26 577.07 0 -522.36c0,-92.41 3.77,-150.87 15.08,-211.21l-175.38 0c11.31,69.78 15.1,124.46 15.1,211.21l0 1010.75c0,86.75 -3.79,150.87 -15.1,211.2l175.38 0c-11.31,-65.99 -15.08,-116.9 -15.08,-211.2l0 -307.37 220.63 -216.86 445.05 573.27c52.78,65.99 84.86,115.01 111.26,162.16l218.73 0c-50.91,-49.02 -69.76,-69.77 -177.25,-205.55l-494.07 -627.94zm1476.54 -599.67c11.31,67.89 15.1,116.92 15.1,211.21l0 1010.75c0,94.3 -3.79,141.43 -15.1,211.2l179.15 0c-11.31,-64.12 -16.97,-128.21 -16.97,-211.2l0 -1010.75c0,-79.2 5.66,-148.98 16.97,-211.21l-179.15 0zm473.33 0c11.31,67.89 15.08,124.46 15.08,211.21l0 997.56c0,98.05 -3.77,164.07 -15.08,224.39l175.38 0c-11.31,-62.22 -15.1,-124.45 -15.1,-224.39l0 -805.21c0,-49.04 -3.77,-141.43 -11.31,-230.08 26.41,50.91 88.64,158.4 103.72,181.04l605.32 908.94c50.91,77.31 71.66,115.05 98.06,169.71l205.55 0c-11.31,-60.33 -15.1,-116.9 -15.1,-211.2l0 -1005.09c0,-96.18 3.79,-148.99 15.1,-216.87l-175.38 0c11.31,66 15.08,124.46 15.08,216.87l0 799.55c0,16.98 3.77,99.95 11.32,250.79 -45.27,-81.07 -101.84,-173.48 -122.57,-205.53l-595.91 -891.97c-54.71,-84.87 -79.2,-126.36 -96.17,-169.73l-198.01 0zm1470.88 1214.43c0,94.28 -3.79,150.85 -15.1,224.39 66.02,-3.77 116.93,-5.66 207.45,-5.66l318.68 0c188.58,0 345.11,-56.56 458.25,-167.82 130.11,-126.36 201.76,-322.46 201.76,-558.2 0,-450.68 -239.5,-707.15 -660.01,-707.15l-318.68 0c-90.52,0 -141.43,-1.88 -207.45,-5.65 11.31,79.2 15.1,133.88 15.1,214.97l0 1005.12zm147.09 86.73l0 -1169.14 367.71 0c154.63,0 271.55,41.46 354.52,128.21 99.96,99.95 148.98,250.82 148.98,446.92 0,194.24 -54.68,354.54 -158.4,460.14 -84.86,90.52 -203.66,133.88 -352.63,133.88l-360.17 0zm2238.38 -13.18c-69.78,9.41 -122.57,13.18 -209.32,13.18l-597.79 0 0 -554.41 495.96 0c98.05,0 147.09,3.79 211.21,13.21l0 -158.39c-71.68,9.41 -128.25,13.21 -211.21,13.21l-495.96 0 0 -482.76 580.82 0c94.28,0 145.2,3.77 211.21,13.18l0 -158.4c-64.12,9.45 -128.25,13.21 -211.21,13.21l-537.44 0c-90.52,0 -141.43,-1.88 -207.45,-5.65 11.32,82.96 15.1,133.88 15.1,214.97l0 1005.12c0,96.17 -3.78,152.74 -15.1,224.39 64.13,-3.77 116.93,-5.66 207.45,-5.66l552.51 0c99.96,0 150.87,3.77 211.21,13.22l0 -158.4zm775.04 -511.05l311.15 465.78c41.5,60.34 62.24,96.18 116.93,190.45l216.85 0c-92.39,-116.9 -137.64,-177.26 -173.48,-228.17l-377.16 -529.89 331.91 -469.55c56.56,-79.2 103.72,-141.42 156.51,-205.55l-213.08 0c-20.74,50.91 -37.71,79.21 -103.72,179.14l-260.23 397.9 -269.66 -397.9c-50.91,-73.55 -82.99,-128.23 -105.61,-179.14l-211.19 0c58.45,73.55 101.83,132.02 154.61,203.67l333.78 471.43 -379.03 533.67c-39.6,54.68 -64.11,90.52 -167.83,224.39l214.98 0c32.05,-62.22 67.89,-122.57 113.14,-192.33l311.15 -463.9z"/>
  </g>
 </g>
</svg>