<?xml version="1.0" encoding="UTF-8"?> <svg xmlns="http://www.w3.org/2000/svg" xmlns:xlink="http://www.w3.org/1999/xlink" xml:space="preserve" width="2453px" height="652px" version="1.1" style="shape-rendering:geometricPrecision; text-rendering:geometricPrecision; image-rendering:optimizeQuality; fill-rule:evenodd; clip-rule:evenodd" viewBox="0 0 2455.96 652.52"> <defs> <style type="text/css"> .str0 {stroke:black;stroke-width:9.6;stroke-miterlimit:2.61313} .fil1 {fill:none} .fil0 {fill:black} </style> </defs> <g id="Plan_x0020_1"> <metadata id="CorelCorpID_0Corel-Layer"></metadata> <g id="Mobile_-_Logo_Sketch.svg"> <g> <path class="fil0" d="M969.37 487.66c1.15,1.34 1.73,2.88 1.73,4.41 0,2.11 -0.77,4.03 -2.5,5.57 -1.72,1.53 -3.64,2.3 -5.75,2.3l-0.39 0c-3.07,0 -6.14,-1.73 -8.83,-5.18l-190.95 -227.04 -97.11 103.25 0 119.57c0,6.33 -2.5,9.4 -7.68,9.4l-0.38 0c-5.19,0 -7.87,-3.07 -7.87,-9.4l0 -398.42c0,-6.14 2.68,-9.4 7.87,-9.4l0.38 0c4.99,0 7.68,3.07 7.68,9.4l0 257.17 243.92 -261.2c3.46,-3.65 6.53,-5.57 8.83,-5.57l0.58 0c2.11,0 4.03,0.77 5.56,2.5 1.54,1.73 2.31,3.65 2.31,5.76 0,2.11 -0.77,3.83 -2.11,5.18l-150.66 159.67 195.37 232.03z"></path> <path class="fil0" d="M1055.16 82.52l271.37 0c6.33,0 9.4,2.69 9.4,7.87l0 0.39c0,2.68 -0.77,4.8 -2.49,6.14 -1.73,1.34 -4.03,2.11 -6.91,2.11l-263.5 0 0 176.75 215.9 0c2.88,0 5.38,0.58 7.1,1.92 1.92,1.35 2.69,3.27 2.69,5.95l0 0.39c0,2.68 -0.96,4.8 -2.69,5.95 -1.92,1.34 -4.22,1.92 -7.1,1.92l-215.9 0 0 191.91 269.45 0c6.33,0 9.4,2.69 9.4,7.87l0 0.38c0,2.69 -0.77,4.8 -2.49,6.15 -1.73,1.34 -4.03,2.11 -6.91,2.11l-277.32 0c-5.18,0 -7.87,-2.69 -7.87,-8.26l0 -401.68c0,-5.37 2.49,-7.87 7.87,-7.87z"></path> <path class="fil0" d="M1384.68 82.52l299.58 0c4.99,0 7.68,2.69 7.68,7.87l0 0.39c0,5.37 -2.5,8.25 -7.68,8.25l-141.25 0 0 392.85c0,5.38 -2.49,8.25 -7.68,8.25l-0.38 0.01c-5.38,0 -8.25,-2.69 -8.25,-8.26l0 -393.04 -142.21 0c-5.38,0 -8.26,-2.69 -8.26,-8.25l0 -0.2c0.39,-5.37 3.07,-7.87 8.45,-7.87z"></path> <path class="fil0" d="M2037.96 439.87c1.92,0 3.65,0.77 4.99,2.11l0.58 0.58c1.15,1.15 1.73,2.69 1.73,4.61 0,3.07 -1.35,5.56 -3.84,7.67 -18.62,15.74 -38.96,28.02 -61.42,36.66 -22.45,8.64 -46.06,13.05 -71.01,13.05 -38.95,0 -75.03,-9.6 -107.85,-28.6 -33.01,-19 -59.11,-44.9 -78.5,-77.53 -19.38,-32.63 -29.17,-68.32 -29.17,-107.28 0,-38.96 9.6,-74.85 28.98,-107.28 19.38,-32.63 45.48,-58.35 78.49,-77.35 33.01,-19 69.1,-28.59 108.05,-28.59 24.95,0 48.56,4.22 71.01,12.67 22.27,8.44 42.99,20.53 61.8,36.08 3.07,2.87 4.61,5.56 4.61,7.86 0,0.58 -0.19,1.16 -0.39,1.73 -0.38,0.58 -0.38,0.96 -0.38,1.15l-0.58 1.16 -0.38 0.38c-1.73,1.73 -3.84,2.69 -6.53,2.69 -2.11,0 -4.22,-0.77 -6.52,-2.31 -38.39,-29.55 -79.46,-44.52 -122.83,-44.52 -36.08,0 -69.28,8.63 -99.8,26.1 -30.51,17.27 -54.69,41.07 -72.35,71.01 -17.66,29.94 -26.67,63.14 -26.67,99.22 0,36.08 8.82,69.09 26.67,99.03 17.85,29.94 42.03,53.54 72.35,71.01 30.52,17.46 63.72,26.1 99.8,26.1 43.57,0 84.25,-14.97 122.64,-45.1 2.11,-1.35 4.41,-2.31 6.52,-2.31z"></path> <path class="fil0" d="M2137.95 300.16l0 190.38c0,6.33 -2.49,9.4 -7.68,9.4l-0.38 0c-5.18,0 -7.87,-3.07 -7.87,-9.4l0 -398.8c0,-6.14 2.69,-9.41 7.87,-9.41l0.38 0c4.99,0 7.68,3.07 7.68,9.41l0 192.49 302.08 0 0 -192.49c0,-6.14 2.68,-9.41 7.87,-9.41l0.38 0c4.99,0 7.68,3.07 7.68,9.41l0 398.61c0,6.33 -2.5,9.4 -7.68,9.4l-0.38 0c-5.19,0 -7.87,-3.07 -7.87,-9.4l0 -190.38 -302.08 0 0 0.19z"></path> </g> <g> <path class="fil0" d="M386.9 199.59c-2.3,0 -4.6,-0.57 -6.52,-1.72 -1.92,-1.16 -4.22,-2.69 -6.72,-4.8l-0.57 -0.19c-3.46,-3.46 -7.87,-7.3 -13.25,-11.52 -5.37,-4.22 -11.51,-8.06 -18.23,-11.71 -6.72,-3.64 -14.01,-6.71 -21.69,-9.21 -7.67,-2.49 -15.54,-3.84 -23.6,-3.84 -10.17,0 -19.19,1.16 -26.87,3.46 -7.87,2.3 -14.39,5.37 -19.57,9.21 -5.19,3.84 -9.22,8.45 -11.9,13.82 -2.69,5.18 -4.03,10.94 -4.03,16.89 0,6.52 2.11,12.28 6.14,17.08 4.03,4.99 9.59,9.21 16.5,13.05 6.91,3.84 14.97,7.29 23.99,10.55 9.02,3.27 18.62,6.34 28.6,9.41 11.51,3.45 22.84,7.1 33.97,11.13 11.32,4.03 22.07,8.44 32.24,13.43 10.17,4.99 19.77,10.56 28.79,16.51 8.82,6.14 16.5,13.05 23.03,20.92 6.52,7.87 11.51,16.69 15.16,26.48 3.65,9.79 5.56,20.73 5.56,32.82 0,19.77 -4.03,37.61 -11.89,53.54 -8.06,15.93 -19,29.56 -33.01,40.88 -14.01,11.32 -30.52,19.96 -49.52,26.1 -19,6.14 -39.34,9.22 -61.03,9.22 -14.01,0 -27.82,-1.73 -41.64,-4.99 -13.82,-3.27 -27.06,-7.87 -39.73,-13.82 -12.67,-5.95 -24.76,-13.25 -36.08,-21.69 -11.32,-8.44 -21.5,-17.85 -30.32,-28.4l0 0.19 -0.58 -1.15c-4.03,-4.61 -5.95,-8.64 -5.95,-12.48 0,-1.92 0.58,-3.84 1.73,-5.75 1.15,-1.73 2.68,-3.84 4.99,-5.95l9.02 -9.02c2.69,-2.31 5.56,-4.99 8.63,-7.87 3.08,-2.88 6.15,-5.57 9.22,-7.87 3.07,-2.31 5.95,-4.42 8.63,-5.95 2.69,-1.73 4.8,-2.5 6.34,-2.5 2.49,0 4.99,0.77 7.1,2.5 2.11,1.73 4.03,3.26 5.37,4.6l1.15 1.16 -0.77 0c6.34,5.95 13.44,11.7 21.31,17.08 7.87,5.37 15.93,10.36 24.37,14.58 8.25,4.22 16.7,7.68 24.95,9.98 8.25,2.5 15.93,3.65 23.22,3.65 9.98,0 19.39,-1.35 28.02,-3.84 8.64,-2.49 16.32,-6.14 22.65,-10.75 6.33,-4.6 11.32,-10.17 14.97,-16.69 3.64,-6.53 5.37,-13.82 5.37,-21.69 0,-8.06 -2.3,-14.78 -7.1,-20.54 -4.8,-5.75 -10.94,-10.74 -18.42,-14.96 -7.68,-4.23 -16.12,-7.87 -25.72,-10.94 -9.6,-3.07 -19.19,-5.95 -28.79,-8.64 -22.07,-6.72 -41.45,-14.01 -58.15,-21.69 -16.5,-7.86 -30.51,-16.5 -41.45,-26.29 -11.13,-9.79 -19.39,-20.53 -24.95,-32.62 -5.57,-12.1 -8.25,-25.72 -8.25,-40.69 0,-16.89 3.45,-32.24 10.17,-46.06 6.71,-13.82 16.5,-25.72 28.98,-35.7 12.47,-9.98 27.63,-17.65 45.1,-23.22 17.65,-5.56 37.23,-8.25 59.11,-8.25 16.5,0 33.2,2.49 50.28,7.68 17.08,5.18 32.82,12.28 47.4,21.3 4.42,2.69 8.83,5.76 13.24,9.21 4.61,3.46 8.64,6.91 12.48,10.56 3.84,3.45 6.91,6.91 9.4,10.36 2.5,3.46 3.65,6.14 3.65,8.64 0,2.11 -0.58,4.41 -1.73,6.71 -1.15,2.31 -2.49,4.23 -4.03,6.15l-8.25 8.63 0 -0.19c-2.69,2.88 -5.57,5.95 -8.45,9.02 -2.88,3.07 -5.75,5.76 -8.63,8.25 -2.88,2.5 -5.57,4.42 -7.87,6.14 -1.92,1.54 -4.03,2.3 -5.57,2.3z"></path> </g> <g> <path class="fil0" d="M292.86 585.73c-161.4,0 -292.86,-131.46 -292.86,-292.87 0,-161.4 131.46,-292.86 292.86,-292.86 161.41,0 292.87,131.46 292.87,292.86 0,161.6 -131.46,292.87 -292.87,292.87zm0 -536.98c-134.53,0 -244.11,109.58 -244.11,244.12 0,134.53 109.58,244.11 244.11,244.11 134.54,0 244.12,-109.58 244.12,-244.11 0,-134.54 -109.58,-244.12 -244.12,-244.12z"></path> </g> <g> <path class="fil0" d="M1047.1 650.98l0 -72.93 22.84 0c16.12,0 31.47,11.13 31.47,36.28 0,13.24 -3.84,23.41 -10.17,28.78 -6.34,5.38 -13.44,7.68 -22.07,7.68l-22.07 0 0 0.19zm8.63 -7.87l12.86 0c15.74,0 23.8,-9.59 23.8,-28.59 0,-18.24 -8.83,-28.41 -23.03,-28.41l-13.43 0 0 57 -0.2 0z"></path> <polygon class="fil0" points="1162.06,650.98 1162.06,578.05 1205.81,578.05 1205.81,585.92 1170.69,585.92 1170.69,609.53 1202.93,609.53 1202.93,617.2 1170.69,617.2 1170.69,642.92 1205.81,642.92 1205.81,650.79 1162.06,650.79 "></polygon> <path class="fil0" d="M1273.17 624.11c0.96,7.1 3.08,12.29 5.95,15.55 3.08,3.26 7.87,4.8 14.59,4.8 10.75,0 16.51,-5.57 16.51,-12.67 0,-3.46 -1.35,-6.33 -3.84,-8.25 -2.5,-1.92 -7.87,-4.42 -16.32,-7.1 -16.12,-5.19 -22.64,-10.56 -22.64,-20.73 0,-5.38 2.11,-9.79 6.14,-13.63 4.22,-3.84 9.79,-5.56 16.7,-5.56 13.81,0 23.6,6.91 25.33,20.15l-8.83 1.92c-1.73,-8.83 -6.33,-13.82 -16.7,-13.82 -9.21,0 -14.2,4.61 -14.2,10.94 0,2.88 1.15,4.99 3.26,6.72 2.12,1.72 7.11,3.83 14.78,6.33 9.6,3.07 16.12,6.33 19.39,9.4 3.26,3.26 4.99,7.68 4.99,13.05 0,5.95 -2.31,10.94 -6.72,15.16 -4.42,4.03 -10.75,5.95 -18.62,5.95 -17.27,0 -27.06,-8.82 -29.17,-26.67l9.4 -1.54z"></path> <polygon class="fil0" points="1378.92,650.98 1378.92,578.05 1387.56,578.05 1387.56,650.98 "></polygon> <path class="fil0" d="M1458.76 643.69c-5.76,-5.95 -9.41,-16.51 -9.41,-29.94 0,-11.71 3.07,-20.92 9.02,-27.44 5.95,-6.53 13.25,-9.79 21.88,-9.79 7.11,0 13.25,2.11 18.04,6.71 4.8,4.42 8.06,10.18 9.22,17.47l-8.64 1.53c-2.3,-11.51 -8.64,-17.46 -18.62,-17.46 -6.33,0 -11.51,2.5 -15.54,7.29 -4.03,4.8 -6.14,12.09 -6.14,21.69 0,9.79 1.92,17.46 5.95,22.84 4.03,5.18 9.4,7.87 15.73,7.87 12.1,0 19.58,-8.06 19.2,-21.31l-18.24 0 0 -7.87 26.87 0 0 7.11c0,9.4 -2.69,16.88 -7.68,22.07 -5.18,5.37 -11.89,8.06 -20.15,8.06 -8.25,0 -15.54,-2.88 -21.49,-8.83z"></path> <polygon class="fil0" points="1569.49,650.98 1569.49,578.05 1578.9,578.05 1612.1,636.59 1612.29,636.59 1612.29,578.05 1620.74,578.05 1620.74,650.98 1611.72,650.98 1578.32,592.45 1578.13,592.45 1578.13,650.98 "></polygon> <path class="fil0" d="M1750.09 650.98l26.29 -72.93 8.44 0 26.3 72.93 -8.83 0 -5.37 -14.2 -32.63 0 -5.37 14.2 -8.83 0zm16.69 -21.69l27.64 0 -13.82 -39.53 -0.19 0 -13.63 39.53z"></path> <path class="fil0" d="M1940.28 650.98l0 -72.93 22.84 0c16.12,0 31.47,11.13 31.47,36.28 0,13.24 -3.84,23.41 -10.17,28.78 -6.34,5.38 -13.44,7.68 -22.07,7.68l-22.07 0 0 0.19zm8.63 -7.87l12.86 0c15.74,0 23.8,-9.59 23.8,-28.59 0,-18.24 -8.83,-28.41 -23.03,-28.41l-13.44 0 0 57 -0.19 0z"></path> <path class="fil0" d="M2055.43 650.98l0 -72.93 28.02 0c15.16,0 24.37,7.3 24.37,21.69 0,11.71 -6.91,18.81 -17.85,20.73l16.32 30.32 -9.6 0 -15.74 -29.75 -16.5 0 0 29.75 -9.02 0 0 0.19zm8.63 -37.42l18.81 0c9.6,0 16.31,-4.23 16.31,-13.82 0,-9.21 -5.56,-13.82 -16.5,-13.82l-18.62 0 0 27.64z"></path> <polygon class="fil0" points="2168.08,650.98 2168.08,578.05 2211.84,578.05 2211.84,585.92 2176.72,585.92 2176.72,609.53 2208.96,609.53 2208.96,617.2 2176.72,617.2 2176.72,642.92 2211.84,642.92 2211.84,650.79 2168.08,650.79 "></polygon> <path class="fil0" d="M2266.92 650.98l26.29 -72.93 8.45 0 26.29 72.93 -8.83 0 -5.37 -14.2 -32.63 0 -5.37 14.2 -8.83 0zm16.7 -21.69l27.63 0 -13.82 -39.53 -0.19 0 -13.62 39.53z"></path> <polygon class="fil0" points="2385.33,650.98 2385.33,578.05 2397.42,578.05 2420.26,633.9 2420.45,633.9 2443.29,578.05 2455.38,578.05 2455.38,650.98 2446.94,650.98 2446.94,590.14 2446.74,590.14 2421.6,650.98 2418.92,650.98 2393.78,590.14 2393.58,590.14 2393.58,650.98 "></polygon> </g> <line class="fil1 str0" x1="966.49" y1="609.72" x2="650.02" y2="609.72"></line> </g> </g> </svg> 