<?xml version="1.0" encoding="UTF-8"?>
<!DOCTYPE svg PUBLIC "-//W3C//DTD SVG 1.1//EN" "http://www.w3.org/Graphics/SVG/1.1/DTD/svg11.dtd">
<!-- Creator: CorelDRAW -->
<svg xmlns="http://www.w3.org/2000/svg" xml:space="preserve" width="9.21162in" height="2.70516in" version="1.1" style="shape-rendering:geometricPrecision; text-rendering:geometricPrecision; image-rendering:optimizeQuality; fill-rule:evenodd; clip-rule:evenodd"
viewBox="0 0 25974.12 7627.78"
 xmlns:xlink="http://www.w3.org/1999/xlink"
 xmlns:xodm="http://www.corel.com/coreldraw/odm/2003">
 <defs>
  <style type="text/css">
   <![CDATA[
    .fil0 {fill:#FEFEFE;fill-rule:nonzero}
   ]]>
  </style>
 </defs>
 <g id="Calque_x0020_1">
  <metadata id="CorelCorpID_0Corel-Layer"/>
  <g id="_2013341513696">
   <g>
    <path class="fil0" d="M10252.8 5162.27c12.38,14.45 18.53,29.96 18.53,46.45 0,22.75 -8.77,42.33 -26.28,58.86 -17.55,16.53 -37.64,24.79 -60.31,24.79l-3.1 0c-33.02,0 -63.95,-18.61 -92.82,-55.76l-2020.09 -2403.49 -1027.07 1093.34 0 1266.79c0,66.11 -26.83,99.12 -80.41,99.12l-3.09 0c-55.69,0 -83.54,-33.02 -83.54,-99.12l0 -4218.52c0,-66.06 27.84,-99.12 83.54,-99.12l3.09 0c53.57,0 80.41,33.06 80.41,99.12l0 2722.55 2576.94 -2765.9c37.13,-39.2 68.07,-58.86 92.82,-58.86l6.18 0c22.68,0 42.26,8.8 58.79,26.35 16.49,17.54 24.74,37.68 24.74,60.39 0,22.75 -7.24,41.32 -21.66,55.73l-1593.17 1691.12 2066.49 2456.17z"/>
    <path class="fil0" d="M11159.13 872.52l2870.87 0c65.95,0 98.96,27.89 98.96,83.61l0 3.1c0,28.94 -8.8,50.63 -26.28,65.05 -17.58,14.49 -41.79,21.69 -72.68,21.69l-2787.33 0 0 1870.76 2283.03 0c30.97,0 56.23,6.71 75.81,20.14 19.58,13.43 29.42,34.58 29.42,63.48l0 3.1c0,28.94 -9.84,50.09 -29.42,63.52 -19.58,13.43 -44.84,20.13 -75.81,20.13l-2283.03 0 0 2031.8 2849.21 0c65.99,0 98.96,27.89 98.96,83.65l0 3.1c0,28.94 -8.77,50.6 -26.28,65.01 -17.58,14.49 -41.79,21.69 -72.68,21.69l-2932.74 0c-55.68,0 -83.53,-28.9 -83.53,-86.7l0 -4249.51c0,-55.73 27.84,-83.61 83.53,-83.61z"/>
    <path class="fil0" d="M14645.53 872.52l3167.82 0c53.61,0 80.44,27.89 80.44,83.61l0 3.1c0,57.84 -26.83,86.75 -80.44,86.75l-1494.21 0 0 4159.66c0,57.8 -26.82,86.7 -80.44,86.7l-3.1 0c-57.76,0 -86.62,-28.9 -86.62,-86.7l0 -4159.66 -1503.45 0c-57.77,0 -86.63,-28.91 -86.63,-86.75l0 -3.1c0,-55.73 28.86,-83.61 86.63,-83.61z"/>
    <path class="fil0" d="M21553.48 4657.42c20.6,0 38.14,7.24 52.6,21.69l6.15 6.18c12.41,12.38 18.61,28.91 18.61,49.54 0,33.05 -13.43,59.92 -40.22,80.52 -195.97,167.26 -412.51,296.86 -649.68,388.73 -237.17,91.83 -487.73,137.81 -751.72,137.81 -412.51,0 -793.01,-100.64 -1141.52,-301.99 -348.55,-201.33 -625.43,-474.88 -830.61,-820.77 -205.28,-345.85 -307.81,-724.23 -307.81,-1135.17 0,-412.93 102.05,-791.83 306.25,-1136.7 204.15,-344.83 481.04,-617.91 830.61,-819.24 349.6,-201.34 730.57,-301.99 1143.08,-301.99 263.99,0 514.04,44.92 750.2,134.76 236.15,89.8 454.21,217.32 654.28,382.5 32.94,30.97 49.5,58.86 49.5,83.61 0,6.18 -1.52,12.41 -4.65,18.59 -3.1,6.19 -4.63,10.35 -4.63,12.38l-6.18 12.38 -3.1 3.1c-18.56,18.59 -41.32,27.92 -68.06,27.92 -22.71,0 -45.39,-8.26 -68.06,-24.83 -406.32,-313.81 -839.42,-470.77 -1299.3,-470.77 -381.57,0 -733.71,91.92 -1056.46,275.67 -322.81,183.83 -578,434.7 -765.63,752.63 -187.74,318.04 -281.54,668.04 -281.54,1049.99 0,382.04 94.38,731.52 283.07,1048.47 188.72,316.94 443.9,567.82 765.66,752.63 321.72,184.8 673.32,277.19 1054.89,277.19 459.88,0 891.96,-158.96 1296.2,-476.96 22.67,-18.59 45.35,-27.88 68.06,-27.88z"/>
    <path class="fil0" d="M22611.38 3176.91l0 2016.33c0,66.11 -26.83,99.12 -80.44,99.12l-3.1 0c-55.65,0 -83.54,-33.02 -83.54,-99.12l0 -4221.62c0,-66.02 27.89,-99.08 83.54,-99.08l3.1 0c53.61,0 80.44,33.06 80.44,99.08l0 2038.03 3195.67 0 0 -2038.03c0,-66.02 27.85,-99.08 83.54,-99.08l3.1 0c53.61,0 80.44,33.06 80.44,99.08l0 4221.62c0,66.11 -26.83,99.12 -80.44,99.12l-3.1 0c-55.68,0 -83.54,-33.02 -83.54,-99.12l0 -2016.33 -3195.67 0z"/>
    <path class="fil0" d="M4091.84 2112.76c-24.96,0 -48.01,-6.23 -69.08,-18.72 -21.15,-12.49 -45.08,-29.25 -71.95,-50.44l-5.75 -2.9c-36.47,-36.46 -83.46,-76.8 -141.03,-121.01 -57.57,-44.17 -121.87,-85.45 -192.84,-123.91 -71,-38.41 -147.29,-71.04 -228.83,-97.95 -81.57,-26.9 -164.55,-40.38 -248.96,-40.38 -107.46,0 -202.46,12.02 -284.95,36.03 -82.52,24.05 -151.6,56.71 -207.2,97.98 -55.69,41.32 -97.87,89.84 -126.65,145.49 -28.79,55.77 -43.16,115.3 -43.16,178.7 0,69.16 21.58,129.63 64.74,181.53 43.19,51.84 101.7,97.98 175.6,138.32 73.82,40.33 158.73,77.34 254.67,110.95 95.95,33.64 196.68,66.77 302.22,99.39 120.9,36.5 240.77,75.9 359.79,118.16 118.94,42.3 232.63,89.8 341.03,142.63 108.4,52.86 209.64,111.46 303.66,175.8 93.99,64.39 175.06,138.29 243.21,221.89 68.11,83.54 121.84,176.74 161.16,279.51 39.31,102.76 59.01,218.53 59.01,347.21 0,209.41 -42.22,398.65 -126.61,567.71 -84.48,169.03 -201.02,313.62 -349.72,433.65 -148.7,120.07 -323.33,212.3 -523.8,276.64 -200.55,64.35 -415.91,96.54 -646.15,96.54 -147.8,0 -294.58,-17.26 -440.35,-51.84 -145.84,-34.58 -285.92,-83.58 -420.25,-146.98 -134.32,-63.41 -261.46,-139.78 -381.33,-229.11 -119.96,-89.32 -226.91,-189.66 -320.9,-301.12l0 2.9 -5.75 -11.55c-42.26,-47.98 -63.33,-92.2 -63.33,-132.53 0,-21.15 5.76,-41.29 17.27,-60.55 11.51,-19.15 28.74,-40.34 51.81,-63.41l94.97 -95.05c28.74,-24.98 59.45,-52.83 92.07,-83.57 32.63,-30.71 65.24,-58.58 97.87,-83.57 32.62,-24.94 62.81,-46.09 90.66,-63.41 27.8,-17.26 50.4,-25.92 67.63,-25.92 26.86,0 51.81,8.66 74.84,25.92 23.02,17.32 42.17,33.65 57.56,49l11.52 11.51 -2.9 0c67.16,63.4 142.47,123.91 225.97,181.56 83.46,57.64 169.29,109.06 257.57,154.17 88.23,45.16 176,80.68 263.37,106.61 87.26,25.92 169.3,38.89 246.06,38.89 105.51,0 204.35,-13.39 296.47,-40.34 92.06,-26.86 171.68,-64.81 238.85,-113.8 67.16,-49 119.92,-108.09 158.33,-177.25 38.34,-69.16 57.54,-145.96 57.54,-230.51 0,-84.51 -24.94,-157.05 -74.8,-217.55 -49.93,-60.51 -115.14,-113.34 -195.74,-158.49 -80.56,-45.12 -171.23,-84 -271.99,-116.71 -100.72,-32.66 -201.95,-63.4 -303.62,-92.23 -234.12,-71.04 -438.94,-147.91 -614.51,-230.51 -175.57,-82.59 -321.88,-175.3 -438.9,-278.1 -117.05,-102.73 -204.85,-218.02 -263.37,-345.77 -58.55,-127.75 -87.77,-271.31 -87.77,-430.83 0,-178.66 35.99,-341.46 107.94,-488.4 71.94,-146.98 174.11,-272.77 306.48,-377.53 132.42,-104.64 291.65,-186.29 477.79,-244.92 186.1,-58.59 394.33,-87.89 624.57,-87.89 174.59,0 352.08,27.38 532.46,82.13 180.34,54.75 347.26,130.17 500.78,226.2 46.09,28.83 93.08,61.53 141.06,97.99 47.94,36.5 92.11,73.47 132.36,110.91 40.31,37.48 73.4,73.98 99.32,109.54 25.89,35.56 38.84,65.83 38.84,90.74 0,23.07 -5.75,46.6 -17.26,70.6 -11.51,24.05 -25.89,45.67 -43.16,64.85l-86.36 92.2 0 -2.86c-28.79,30.74 -58.55,62.42 -89.21,95.09 -30.74,32.69 -61.45,61.96 -92.11,87.88 -30.71,25.97 -58.55,47.55 -83.49,64.85 -24.91,17.27 -46.03,25.92 -63.29,25.92z"/>
    <path class="fil0" d="M3097.41 516.64c-1423.37,0 -2581.4,1159.41 -2581.4,2584.5 0,1425.09 1158.04,2584.54 2581.4,2584.54 1423.41,0 2581.41,-1159.46 2581.41,-2584.54 0,-1425.09 -1158,-2584.5 -2581.41,-2584.5zm0 5685.64c-1707.92,0 -3097.41,-1391.14 -3097.41,-3101.14 0,-1709.96 1389.49,-3101.14 3097.41,-3101.14 1707.92,0 3097.42,1391.18 3097.42,3101.14 0,1710 -1389.5,3101.14 -3097.42,3101.14z"/>
   </g>
   <path class="fil0" d="M12427.5 7627.78c253.1,0 410.66,-115.65 410.66,-318.47 0,-414.01 -700.63,-258.13 -700.63,-581.62 0,-140.8 127.39,-206.17 293.33,-206.17 162.59,0 316.8,65.38 316.8,65.38l38.54 -87.17c-62.01,-28.49 -204.48,-75.42 -360.37,-75.42 -249.74,0 -395.57,119.01 -395.57,311.77 0,422.39 700.63,259.8 700.63,579.94 0,137.44 -110.62,212.88 -301.71,212.88 -179.35,0 -331.88,-67.05 -368.75,-85.49l-41.91 88.84c45.26,23.47 209.51,95.54 408.98,95.54zm593.36 -601.74c0,333.56 268.17,601.74 600.05,601.74 325.18,0 598.39,-264.83 598.39,-601.74 0,-331.87 -266.51,-601.73 -598.39,-601.73 -325.18,0 -600.05,263.15 -600.05,601.73zm108.95 0c0,-284.94 217.89,-506.19 491.11,-506.19 278.24,0 489.43,226.29 489.43,506.19 0,283.27 -212.87,506.2 -489.43,506.2 -278.24,0 -491.11,-222.93 -491.11,-506.2zm1357.68 -586.64l0 1173.3 774.38 0 0 -98.89 -670.46 0 0 -1074.41 -103.92 0zm1387.84 1173.3c48.61,0 155.88,-11.73 263.15,-73.75 186.06,-107.28 258.13,-308.41 258.13,-512.91 0,-204.48 -70.39,-402.26 -258.13,-512.9 -105.59,-60.34 -209.51,-73.75 -263.15,-73.75l-397.25 0 0 1173.3 397.25 0zm-291.65 -1074.41l274.89 0c31.85,0 132.42,5.03 232.99,65.38 142.46,83.8 201.13,239.69 201.13,422.38 0,177.68 -56.99,338.59 -201.13,422.39 -100.58,58.67 -192.76,65.38 -232.99,65.38l-274.89 0 0 -975.52zm1523.62 -98.89l0 1173.3 103.92 0 0 -476.02 390.54 0c181.03,0 328.53,-170.97 328.53,-350.32 0,-179.34 -149.18,-346.96 -333.56,-346.96l-489.43 0zm103.92 98.89l360.37 0c137.44,0 254.78,105.59 254.78,249.74 0,125.71 -103.93,251.42 -229.64,251.42l-385.51 0 0 -501.16zm960.43 -98.89l0 1173.3 103.92 0 0 -511.22 370.43 0 284.95 511.22 115.65 0 -293.32 -522.96c149.18,-33.53 253.1,-167.62 253.1,-320.15 0,-181.02 -147.5,-330.19 -331.88,-330.19l-502.84 0zm103.92 98.89l373.78 0c134.09,0 254.78,87.16 254.78,231.31 0,124.03 -102.25,236.35 -229.64,236.35l-398.92 0 0 -467.65zm943.67 487.75c0,333.56 268.18,601.74 600.07,601.74 325.17,0 598.38,-264.83 598.38,-601.74 0,-331.87 -266.51,-601.73 -598.38,-601.73 -325.18,0 -600.07,263.15 -600.07,601.73zm108.95 0c0,-284.94 217.91,-506.19 491.12,-506.19 278.24,0 489.43,226.29 489.43,506.19 0,283.27 -212.87,506.2 -489.43,506.2 -278.24,0 -491.12,-222.93 -491.12,-506.2zm1754.93 586.66c48.61,0 155.88,-11.73 263.15,-73.75 186.06,-107.28 258.13,-308.41 258.13,-512.91 0,-204.48 -70.39,-402.26 -258.13,-512.9 -105.59,-60.34 -209.51,-73.75 -263.15,-73.75l-397.25 0 0 1173.3 397.25 0zm-291.65 -1074.41l274.89 0c31.85,0 132.42,5.03 232.99,65.38 142.47,83.8 201.13,239.69 201.13,422.38 0,177.68 -56.98,338.59 -201.13,422.39 -100.58,58.67 -192.76,65.38 -232.99,65.38l-274.89 0 0 -975.52zm1079.44 -98.89l0 693.93c0,48.6 1.68,93.86 6.71,139.12 18.44,192.75 201.14,340.25 430.77,340.25 227.95,0 414.01,-147.5 432.45,-340.25 5.03,-45.26 6.71,-90.52 6.71,-139.12l0 -693.93 -102.24 0 0 784.44c0,157.56 -152.53,289.98 -336.91,289.98 -182.7,0 -336.9,-132.42 -336.9,-289.98l0 -784.44 -100.58 0zm1746.55 -15.09c-328.52,0 -611.79,258.13 -611.79,601.73 0,343.62 283.27,601.74 611.79,601.74 117.33,0 246.39,-33.53 338.59,-80.45l-38.55 -78.79c0,0 -137.44,62.02 -301.71,63.7 -279.92,0 -501.16,-222.93 -501.16,-506.2 0,-283.26 221.25,-506.19 501.16,-506.19 164.26,1.68 301.71,63.7 301.71,63.7l38.55 -78.79c-92.2,-46.92 -221.26,-80.45 -338.59,-80.45zm464.3 15.09l0 98.89 417.36 0 0 1074.41 103.92 0 0 -1074.41 417.36 0 0 -98.89 -938.64 0zm1481.71 1188.39c253.1,0 410.66,-115.65 410.66,-318.47 0,-414.01 -700.63,-258.13 -700.63,-581.62 0,-140.8 127.39,-206.17 293.33,-206.17 162.58,0 316.78,65.38 316.78,65.38l38.55 -87.17c-62.02,-28.49 -204.48,-75.42 -360.37,-75.42 -249.74,0 -395.57,119.01 -395.57,311.77 0,422.39 700.62,259.8 700.62,579.94 0,137.44 -110.62,212.88 -301.7,212.88 -179.35,0 -331.88,-67.05 -368.76,-85.49l-41.9 88.84c45.25,23.47 209.51,95.54 408.98,95.54z"/>
  </g>
 </g>
</svg>
